<svg width="1600" height="1200" viewBox="0 0 1600 1200" fill="none" xmlns="http://www.w3.org/2000/svg">
  <defs>
    <linearGradient id="bg" x1="0" y1="0" x2="1" y2="1">
      <stop offset="0%" stop-color="#0d3a27"/>
      <stop offset="100%" stop-color="#072117"/>
    </linearGradient>
    <linearGradient id="note" x1="0" y1="0" x2="1" y2="1">
      <stop offset="0%" stop-color="#36F5A4" stop-opacity="0.44"/>
      <stop offset="100%" stop-color="#0A9B60" stop-opacity="0.22"/>
    </linearGradient>
  </defs>
  <rect width="1600" height="1200" fill="url(#bg)"/>

  <g opacity="0.34" transform="rotate(-9 800 600)">
    <rect x="180" y="160" width="520" height="280" rx="24" fill="url(#note)" stroke="#73FFD0" stroke-opacity="0.42"/>
    <rect x="240" y="225" width="160" height="78" rx="10" fill="#A7FFE0" fill-opacity="0.20"/>
    <rect x="240" y="332" width="300" height="20" rx="10" fill="#D9FFF0" fill-opacity="0.32"/>
    <circle cx="600" cy="318" r="42" fill="#FFD37C" fill-opacity="0.52"/>
    <circle cx="560" cy="318" r="42" fill="#FF8B8B" fill-opacity="0.52"/>
  </g>

  <g opacity="0.28" transform="rotate(7 800 600)">
    <rect x="820" y="560" width="580" height="300" rx="24" fill="url(#note)" stroke="#73FFD0" stroke-opacity="0.36"/>
    <rect x="900" y="640" width="170" height="84" rx="10" fill="#A7FFE0" fill-opacity="0.18"/>
    <rect x="900" y="748" width="330" height="18" rx="9" fill="#D9FFF0" fill-opacity="0.28"/>
    <circle cx="1290" cy="734" r="44" fill="#FFD37C" fill-opacity="0.42"/>
    <circle cx="1248" cy="734" r="44" fill="#FF8B8B" fill-opacity="0.42"/>
  </g>

  <g opacity="0.30">
    <path d="M90 988C300 862 560 936 760 812C1014 654 1225 700 1502 536" stroke="#5BFFC2" stroke-opacity="0.58" stroke-width="10" stroke-linecap="round"/>
    <circle cx="760" cy="812" r="18" fill="#66FFBE"/>
    <circle cx="1224" cy="701" r="18" fill="#66FFBE"/>
    <circle cx="1502" cy="536" r="18" fill="#66FFBE"/>
  </g>
</svg>
